<?xml version="1.0" standalone="no"?>
<!DOCTYPE svg PUBLIC "-//W3C//DTD SVG 20010904//EN"
 "http://www.w3.org/TR/2001/REC-SVG-20010904/DTD/svg10.dtd">
<svg version="1.0"
    xmlns="http://www.w3.org/2000/svg" width="700.000000pt" height="700.000000pt" viewBox="0 0 700.000000 700.000000" preserveAspectRatio="xMidYMid meet">
    <metadata>
Created by potrace 1.14, written by Peter Selinger 2001-2017
    </metadata>
    <g transform="translate(0.000000,700.000000) scale(0.100000,-0.100000)" fill="#000000" stroke="none">
        <path d="M3287 5904 c-1 -1 -45 -4 -97 -8 -139 -10 -246 -25 -370 -51 -14 -3
-36 -7 -50 -10 -14 -3 -81 -21 -150 -41 -324 -95 -640 -259 -900 -467 -107
-86 -304 -286 -392 -397 -276 -351 -446 -757 -509 -1220 -15 -106 -18 -435 -6
-550 13 -125 16 -141 38 -245 165 -796 708 -1428 1445 -1684 226 -78 486 -119
737 -116 89 2 179 6 200 9 20 3 54 8 75 11 150 21 213 36 392 96 474 158 884
514 1105 957 80 161 151 376 170 513 3 24 7 55 10 69 16 97 23 357 11 420 -3
14 -8 50 -11 81 -3 31 -8 67 -11 80 -3 13 -7 35 -10 49 -42 215 -149 461 -286
655 -58 84 -297 335 -317 335 -5 0 -16 6 -24 14 -24 24 -178 121 -242 153
-121 60 -302 123 -399 137 -21 4 -41 8 -45 10 -25 16 -295 24 -416 14 -578
-51 -1078 -456 -1213 -983 -29 -112 -31 -125 -39 -207 -28 -292 37 -561 191
-792 117 -175 296 -318 490 -391 60 -23 86 -30 181 -50 17 -4 84 -8 150 -10
254 -5 473 76 637 238 93 91 163 210 196 334 61 228 -121 444 -355 420 -117
-12 -215 -86 -269 -202 -18 -39 -41 -78 -51 -86 -70 -62 -241 -48 -339 26
-221 169 -227 546 -13 795 143 166 363 254 614 246 244 -9 441 -95 618 -271
204 -202 310 -482 301 -795 -2 -87 -5 -112 -23 -208 -79 -411 -393 -766 -808
-915 -78 -28 -168 -53 -223 -62 -19 -3 -60 -10 -90 -15 -127 -21 -414 -2 -570
39 -326 85 -608 278 -824 561 -172 226 -290 534 -320 835 -6 60 -8 322 -2 350
2 11 7 47 10 80 4 33 11 76 16 95 5 19 12 50 15 69 12 73 80 262 132 371 91
189 203 343 361 499 312 306 718 492 1182 539 93 9 358 8 430 -2 25 -4 59 -8
75 -11 188 -25 441 -102 610 -188 44 -22 94 -47 110 -55 64 -32 225 -145 315
-220 286 -239 492 -531 638 -902 148 -378 192 -820 122 -1225 -30 -172 -48
-241 -92 -365 -43 -117 -45 -230 -7 -310 45 -95 133 -165 236 -188 128 -29
282 39 349 153 54 93 154 446 179 635 3 25 7 56 10 70 21 126 28 549 11 685
-5 39 -10 81 -11 95 -3 25 -21 138 -29 175 -63 310 -132 516 -259 773 -324
654 -878 1152 -1550 1393 -105 38 -297 92 -367 104 -19 3 -53 10 -75 15 -22 5
-64 11 -94 15 -30 4 -63 8 -73 10 -51 10 -422 26 -431 19z"/>
    </g>
</svg>
